<?xml version="1.0" encoding="utf-8"?>
<svg xmlns="http://www.w3.org/2000/svg" viewBox="0 0.9481 679.3752 88.1039" width="919.966px" height="606.938px">
  <g transform="matrix(1.27292001247406, 0, 0, 1.27292001247406, 0, -25.510814666748047)" style="">
    <path d="M 190.923 37.851 L 177.238 37.851 L 193.774 88.856 L 208.505 88.856 L 225.041 37.851 L 211.355 37.851 L 201 76.272 L 190.923 37.851 Z" style="fill: rgb(255, 255, 255);"/>
    <path d="M 0 20.786 L 14.16 20.786 L 14.16 88.856 L 0 88.856 L 0 20.786 Z" style="fill: rgb(255, 255, 255);"/>
    <path d="M 28.131 20.786 L 42.291 20.786 L 42.291 88.856 L 28.131 88.856 L 28.131 20.786 Z" style="fill: rgb(255, 255, 255);"/>
    <path d="M 56.259 20.786 L 98.17 20.786 L 98.17 32.131 L 70.42 32.131 L 70.42 48.338 L 96.269 48.338 L 96.269 59.684 L 70.42 59.684 L 70.42 77.511 L 98.17 77.511 L 98.17 88.856 L 56.259 88.856 L 56.259 20.786 Z" style="fill: rgb(255, 255, 255);"/>
    <path d="M 106.817 20.786 L 120.216 20.786 L 120.216 88.856 L 106.817 88.856 L 106.817 20.786 Z" style="fill: rgb(255, 255, 255);"/>
    <path d="M 128.294 63.306 C 128.294 44.716 137.513 36.707 151.863 36.707 C 166.214 36.707 174.387 44.62 174.387 63.497 L 174.387 66.547 L 141.504 66.547 C 141.98 77.606 145.306 81.324 151.673 81.324 C 156.71 81.324 159.846 78.369 160.417 73.221 L 173.816 73.221 C 172.961 84.471 163.648 90 151.673 90 C 136.468 90 128.294 81.897 128.294 63.306 Z M 161.177 57.681 C 160.512 48.338 157.28 45.288 151.673 45.288 C 146.066 45.288 142.549 48.433 141.6 57.681 L 161.177 57.681 Z" style="fill: rgb(255, 255, 255);"/>
    <path d="M 227.607 63.306 C 227.607 44.716 236.825 36.707 251.176 36.707 C 265.526 36.707 273.699 44.62 273.699 63.497 L 273.699 66.547 L 240.817 66.547 C 241.292 77.606 244.618 81.324 250.986 81.324 C 256.022 81.324 259.158 78.369 259.729 73.221 L 273.129 73.221 C 272.273 84.471 262.96 90 250.986 90 C 235.779 90 227.607 81.897 227.607 63.306 Z M 260.489 57.681 C 259.823 48.338 256.593 45.288 250.986 45.288 C 245.379 45.288 241.862 48.433 240.912 57.681 L 260.489 57.681 Z" style="fill: rgb(255, 255, 255);"/>
    <path d="M 337.181 20.786 L 351.341 20.786 L 351.341 77.511 L 377.95 77.511 L 377.95 88.856 L 337.181 88.856 L 337.181 20.786 Z" style="fill: rgb(255, 255, 255);"/>
    <path fill-rule="evenodd" clip-rule="evenodd" d="M 381.277 63.306 C 381.277 43.858 390.211 36.707 401.71 36.707 C 407.412 36.707 412.639 39.949 414.73 43.381 L 414.73 37.851 L 428.415 37.851 L 428.415 88.856 L 415.11 88.856 L 415.11 82.849 C 413.114 86.854 407.507 90 401.329 90 C 389.165 90 381.277 82.183 381.277 63.306 Z M 405.226 46.718 C 411.878 46.718 415.49 51.77 415.49 63.306 C 415.49 74.841 411.878 79.989 405.226 79.989 C 398.574 79.989 394.772 74.841 394.772 63.306 C 394.772 51.77 398.574 46.718 405.226 46.718 Z" style="fill: rgb(255, 255, 255);"/>
    <path fill-rule="evenodd" clip-rule="evenodd" d="M 452.078 82.849 L 452.078 88.856 L 438.774 88.856 L 438.774 20.786 L 452.174 20.786 L 452.174 43.381 C 454.455 39.853 459.776 36.707 465.479 36.707 C 476.693 36.707 485.626 43.858 485.626 63.306 C 485.626 82.755 476.883 90 465.194 90 C 459.017 90 453.979 86.854 452.078 82.849 Z M 461.677 46.813 C 468.33 46.813 472.131 51.77 472.131 63.306 C 472.131 74.841 468.33 79.989 461.677 79.989 C 455.025 79.989 451.413 74.841 451.413 63.306 C 451.413 51.77 455.025 46.813 461.677 46.813 Z" style="fill: rgb(255, 255, 255);"/>
    <path d="M 491.139 73.698 L 504.538 73.698 C 504.728 79.037 507.579 81.611 512.616 81.611 C 517.653 81.611 520.504 79.323 520.504 75.318 C 520.504 71.695 518.319 70.361 513.567 69.217 L 509.48 68.168 C 497.886 65.213 492.088 62.067 492.088 52.438 C 492.088 42.809 501.022 36.707 512.426 36.707 C 523.831 36.707 532.478 41.188 532.859 51.77 L 519.459 51.77 C 519.174 47.099 516.322 45.097 512.237 45.097 C 508.15 45.097 505.299 47.099 505.299 50.913 C 505.299 54.44 507.579 55.775 511.571 56.728 L 515.753 57.776 C 526.777 60.541 533.714 63.306 533.714 73.603 C 533.714 83.898 524.591 90 512.237 90 C 498.836 90 491.423 84.947 491.139 73.698 Z" style="fill: rgb(255, 255, 255);"/>
    <path d="M 295.367 58.825 C 295.367 50.817 299.168 46.432 305.061 46.432 C 309.907 46.432 312.664 49.482 312.664 56.061 L 312.664 88.856 L 326.063 88.856 L 326.063 53.963 C 326.063 42.142 319.411 36.707 309.717 36.707 C 303.16 36.707 297.743 40.044 295.367 44.43 L 295.367 37.851 L 281.777 37.851 L 281.777 88.856 L 295.367 88.856 L 295.367 58.825 Z" style="fill: rgb(255, 255, 255);"/>
  </g>
</svg>