<?xml version="1.0" encoding="utf-8"?>
<svg xmlns="http://www.w3.org/2000/svg" viewBox="0 0.9 715.3 178.8" width="919.966px" height="606.938px">
  <defs>
    <linearGradient id="paint0_linear_16879_40351" x1="904.07" y1="303.509" x2="1073.41" y2="91.4966" gradientUnits="userSpaceOnUse" gradientTransform="matrix(0.679375, 0, 0, 0.679375, 0.000653, -50.758277)">
      <stop stop-color="#760DFF"/>
      <stop offset="1" stop-color="#10CDFF"/>
    </linearGradient>
  </defs>
  <g transform="matrix(1.05292, 0, 0, 1.05292, 0, 54.344112)" style="">
    <path d="M 591.057 -27 L 591.057 95.327 C 591.057 111.768 607.326 123.409 622.533 117.548 C 655.767 104.738 679.375 72.236 679.375 34.163 C 679.375 -3.91 655.767 -36.412 622.533 -49.221 C 619.81 -50.27 617.051 -50.758 614.361 -50.758 C 602.022 -50.761 591.057 -40.497 591.057 -27 Z" fill="url(#paint0_linear_16879_40351)" style="stroke-width: 1;"/>
    <path d="M 591.057 86.128 C 605.24 86.128 618.08 80.306 627.383 70.907 C 636.685 61.511 642.448 48.514 642.448 34.213 C 642.448 5.587 619.396 -17.7 591.057 -17.7 L 591.057 86.128 Z" fill="white" fill-opacity="0.25" style="stroke-width: 1;"/>
    <path d="M 500.291 85.684 C 478.745 85.684 463.648 70 463.648 47.575 C 463.648 24.857 478.452 9.173 499.705 9.173 C 521.397 9.173 535.175 23.684 535.175 46.256 L 535.175 51.679 L 480.65 51.826 C 481.97 64.578 488.712 71.026 500.584 71.026 C 510.404 71.026 516.854 67.216 518.905 60.327 L 535.469 60.327 C 532.39 76.157 519.199 85.684 500.291 85.684 Z M 499.852 23.831 C 489.298 23.831 482.849 29.547 481.09 40.393 L 517.44 40.393 C 517.44 30.426 510.551 23.831 499.852 23.831 Z" fill="white" style="stroke-width: 1;"/>
    <path d="M 398.88 61.793 L 415.882 61.793 C 416.029 68.095 420.719 72.053 428.927 72.053 C 437.281 72.053 441.826 68.682 441.826 63.405 C 441.826 59.74 439.92 57.102 433.471 55.636 L 420.426 52.559 C 407.381 49.627 401.079 43.471 401.079 31.892 C 401.079 17.675 413.097 9.173 429.806 9.173 C 446.076 9.173 457.069 18.554 457.215 32.624 L 440.213 32.624 C 440.067 26.469 435.963 22.511 429.074 22.511 C 422.038 22.511 417.934 25.736 417.934 31.159 C 417.934 35.263 421.159 37.901 427.315 39.367 L 440.359 42.445 C 452.525 45.23 458.681 50.8 458.681 61.939 C 458.681 76.596 446.222 85.684 428.341 85.684 C 410.312 85.684 398.88 76.01 398.88 61.793 Z" fill="white" style="stroke-width: 1;"/>
    <path d="M 373.927 11.372 L 391.809 11.372 L 391.809 83.778 L 375.246 83.778 L 373.927 74.104 C 369.53 80.993 360.15 85.684 350.476 85.684 C 333.767 85.684 323.946 74.398 323.946 56.663 L 323.946 11.372 L 341.828 11.372 L 341.828 50.36 C 341.828 64.138 347.251 69.708 357.218 69.708 C 368.504 69.708 373.927 63.112 373.927 49.334 L 373.927 11.372 Z" fill="white" style="stroke-width: 1;"/>
    <path d="M 272.372 11.372 L 282.779 11.372 L 282.779 2.578 C 282.779 -17.063 293.186 -25.271 308.869 -25.271 C 311.654 -25.271 315.025 -25.124 318.103 -24.538 L 318.103 -9.294 L 311.801 -9.294 C 302.713 -9.294 300.514 -4.604 300.514 2.578 L 300.514 11.372 L 317.81 11.372 L 317.81 26.323 L 300.514 26.323 L 300.514 83.778 L 282.779 83.778 L 282.779 26.323 L 272.372 26.323 L 272.372 11.372 Z" fill="white" style="stroke-width: 1;"/>
    <path d="M 210.053 83.778 L 193.49 83.778 L 193.49 -25.271 L 211.371 -25.271 L 211.371 21.925 C 216.062 13.864 225.735 9.027 236.728 9.027 C 257.395 9.027 270 25.15 270 48.015 C 270 70.294 256.369 85.684 235.556 85.684 C 224.709 85.684 215.475 80.847 211.225 72.492 L 210.053 83.778 Z M 211.518 47.282 C 211.518 60.327 219.579 69.268 231.892 69.268 C 244.497 69.268 251.971 60.181 251.971 47.282 C 251.971 34.384 244.497 25.15 231.892 25.15 C 219.579 25.15 211.518 34.237 211.518 47.282 Z" fill="white" style="stroke-width: 1;"/>
    <path d="M 148.691 85.684 C 127.146 85.684 112.049 70 112.049 47.575 C 112.049 24.857 126.852 9.173 148.105 9.173 C 169.798 9.173 183.575 23.684 183.575 46.256 L 183.575 51.679 L 129.051 51.826 C 130.37 64.578 137.112 71.026 148.985 71.026 C 158.805 71.026 165.254 67.216 167.306 60.327 L 183.869 60.327 C 180.791 76.157 167.599 85.684 148.691 85.684 Z M 148.252 23.831 C 137.698 23.831 131.25 29.547 129.491 40.393 L 165.84 40.393 C 165.84 30.426 158.951 23.831 148.252 23.831 Z" fill="white" style="stroke-width: 1;"/>
    <path d="M 23.452 83.778 L 0 11.372 L 18.615 11.372 L 28.14 42.446 C 29.757 48.162 31.217 54.464 32.542 61.206 C 33.86 54.171 35.178 49.627 37.523 42.446 L 47.49 11.372 L 65.664 11.372 L 75.339 42.446 C 76.218 45.376 79.149 56.223 80.028 61.06 C 81.201 55.637 83.546 46.989 84.866 42.446 L 94.539 11.372 L 113.447 11.372 L 88.383 83.778 L 71.674 83.778 L 61.707 52.412 C 58.775 42.885 57.163 35.996 56.577 32.332 C 55.845 35.703 54.525 40.833 50.861 52.705 L 40.894 83.778 L 23.452 83.778 Z" fill="white" style="stroke-width: 1;"/>
  </g>
</svg>